<svg width="341" height="42" viewBox="0 0 341 42" fill="none" xmlns="http://www.w3.org/2000/svg">
<path d="M317.483 1.52588e-05L317.483 22C317.483 33.0457 308.528 42 297.483 42L43.5172 42C32.4715 42 23.5172 33.0457 23.5172 22L23.5172 2.14537e-06L317.483 1.52588e-05Z" fill="#FFB057"/>
<path fill-rule="evenodd" clip-rule="evenodd" d="M341 1.52588e-05L317.483 1.42097e-05L317.483 24C317.483 10.7452 328.012 1.46794e-05 341 1.52588e-05Z" fill="#FFB057"/>
<path fill-rule="evenodd" clip-rule="evenodd" d="M2.05594e-06 1.31606e-05L23.5172 1.52588e-05L23.5172 24C23.5172 10.7452 12.9882 1.43194e-05 2.05594e-06 1.31606e-05Z" fill="#FFB057"/>
</svg>
