<svg width="20" height="20" viewBox="0 0 20 20" fill="none" xmlns="http://www.w3.org/2000/svg">
<path d="M10 15.625C8.81667 15.625 7.73334 14.875 6.95 13.5167L4.725 9.65833C3.93334 8.3 3.83334 6.99167 4.425 5.96667C5.01667 4.94167 6.20834 4.375 7.775 4.375H12.225C13.7917 4.375 14.9833 4.94167 15.575 5.96667C16.1667 6.99167 16.0583 8.30833 15.275 9.66667L13.05 13.525C12.2667 14.875 11.1833 15.625 10 15.625ZM7.775 5.625C6.66667 5.625 5.86667 5.96667 5.50834 6.59167C5.14167 7.21667 5.25 8.08333 5.8 9.03333L8.025 12.8917C8.575 13.85 9.275 14.375 9.99167 14.375C10.7083 14.375 11.4083 13.85 11.9583 12.8917L14.1833 9.03333C14.7333 8.075 14.8417 7.20833 14.4833 6.58333C14.125 5.95833 13.3167 5.61667 12.2167 5.61667H7.775V5.625Z" fill="#1C4A5A"/>
</svg>
