<svg width="24" height="24" viewBox="0 0 24 24" fill="none" xmlns="http://www.w3.org/2000/svg">
<path fill-rule="evenodd" clip-rule="evenodd" d="M20.6609 12C20.6609 11.5689 20.3232 11.2195 19.9065 11.2195H10.2059C9.78918 11.2195 9.45138 11.5689 9.45138 12C9.45138 12.4311 9.78918 12.7806 10.2059 12.7806H19.9065C20.3232 12.7806 20.6609 12.4311 20.6609 12Z" fill="#FFB057"/>
<path fill-rule="evenodd" clip-rule="evenodd" d="M6.45496 13.8287L5.59268 13.1597C4.93478 12.6492 4.55003 12.3475 4.30138 12.1025C4.25937 12.0611 4.22739 12.0271 4.20334 12C4.22739 11.9729 4.25937 11.9389 4.30138 11.8975C4.55003 11.6525 4.93478 11.3508 5.59268 10.8403L6.45496 10.1713C7.38171 9.45219 7.967 9.00144 8.41017 8.73632C8.487 8.69036 8.55009 8.656 8.60086 8.6304C8.61152 8.68778 8.62281 8.76061 8.63336 8.85178C8.69425 9.37763 8.69687 10.1325 8.69687 11.331L8.69687 12.669C8.69687 13.8675 8.69425 14.6224 8.63336 15.1482C8.62281 15.2394 8.61152 15.3122 8.60086 15.3696C8.55009 15.344 8.487 15.3096 8.41017 15.2637C7.967 14.9986 7.38171 14.5478 6.45496 13.8287ZM2.68867 11.6916C2.80462 11.0522 3.43218 10.5653 4.6873 9.59142L5.54957 8.92237C7.33817 7.53457 8.23247 6.84068 8.97688 7.03095C9.20953 7.09042 9.42649 7.20265 9.61207 7.35952C10.2059 7.86146 10.2059 9.01796 10.2059 11.3309L10.2059 12.669C10.2059 14.982 10.2059 16.1385 9.61207 16.6405C9.42649 16.7974 9.20953 16.9096 8.97688 16.969C8.23247 17.1593 7.33817 16.4654 5.54957 15.0776L4.6873 14.4086C3.43218 13.4347 2.80462 12.9478 2.68867 12.3084C2.65171 12.1046 2.65171 11.8954 2.68867 11.6916Z" fill="#FFB057"/>
</svg>
