<svg width="20" height="20" viewBox="0 0 20 20" fill="none" xmlns="http://www.w3.org/2000/svg">
<path d="M9.99996 18.9583C5.05829 18.9583 1.04163 14.9417 1.04163 10C1.04163 5.05834 5.05829 1.04167 9.99996 1.04167C14.9416 1.04167 18.9583 5.05834 18.9583 10C18.9583 14.9417 14.9416 18.9583 9.99996 18.9583ZM9.99996 2.29167C5.74996 2.29167 2.29163 5.75001 2.29163 10C2.29163 14.25 5.74996 17.7083 9.99996 17.7083C14.25 17.7083 17.7083 14.25 17.7083 10C17.7083 5.75001 14.25 2.29167 9.99996 2.29167Z" fill="#1C4A5A"/>
<path d="M13.0916 13.275C12.9833 13.275 12.875 13.25 12.775 13.1833L10.1916 11.6417C9.54995 11.2583 9.07495 10.4167 9.07495 9.675V6.25833C9.07495 5.91666 9.35828 5.63333 9.69995 5.63333C10.0416 5.63333 10.325 5.91666 10.325 6.25833V9.675C10.325 9.975 10.575 10.4167 10.8333 10.5667L13.4166 12.1083C13.7166 12.2833 13.8083 12.6667 13.6333 12.9667C13.5083 13.1667 13.3 13.275 13.0916 13.275Z" fill="#1C4A5A"/>
</svg>
