<svg width="18" height="18" viewBox="0 0 18 18" fill="none" xmlns="http://www.w3.org/2000/svg">
<path d="M11.25 17.0625H6.75C2.6775 17.0625 0.9375 15.3225 0.9375 11.25V6.75C0.9375 2.6775 2.6775 0.9375 6.75 0.9375H11.25C15.3225 0.9375 17.0625 2.6775 17.0625 6.75V11.25C17.0625 15.3225 15.3225 17.0625 11.25 17.0625Z" fill="#FAECEC"/>
<path d="M12.75 6.80417C12.7417 6.80417 12.7292 6.80417 12.7167 6.80417C10.5125 6.58333 8.3125 6.5 6.13334 6.72083L5.28334 6.80417C5.10834 6.82083 4.95417 6.69583 4.9375 6.52083C4.92084 6.34583 5.04584 6.19583 5.21667 6.17917L6.06667 6.09583C8.28334 5.87083 10.5292 5.95833 12.7792 6.17917C12.95 6.19583 13.075 6.35 13.0583 6.52083C13.0458 6.68333 12.9083 6.80417 12.75 6.80417Z" fill="#FF6F6F"/>
<path d="M7.54167 6.38333C7.525 6.38333 7.50833 6.38333 7.4875 6.37917C7.32083 6.35 7.20417 6.1875 7.23333 6.02083L7.325 5.475C7.39167 5.075 7.48333 4.52083 8.45417 4.52083H9.54583C10.5208 4.52083 10.6125 5.09583 10.675 5.47917L10.7667 6.02083C10.7958 6.19167 10.6792 6.35417 10.5125 6.37917C10.3417 6.40833 10.1792 6.29167 10.1542 6.125L10.0625 5.58333C10.0042 5.22083 9.99167 5.15 9.55 5.15H8.45833C8.01667 5.15 8.00833 5.20833 7.94583 5.57917L7.85 6.12083C7.825 6.275 7.69167 6.38333 7.54167 6.38333Z" fill="#FF6F6F"/>
<path d="M10.3375 13.4792H7.6625C6.20833 13.4792 6.15 12.675 6.10417 12.025L5.83333 7.82917C5.82083 7.65833 5.95417 7.50833 6.125 7.49583C6.3 7.4875 6.44583 7.61667 6.45833 7.7875L6.72917 11.9833C6.775 12.6167 6.79167 12.8542 7.6625 12.8542H10.3375C11.2125 12.8542 11.2292 12.6167 11.2708 11.9833L11.5417 7.7875C11.5542 7.61667 11.7042 7.4875 11.875 7.49583C12.0458 7.50833 12.1792 7.65417 12.1667 7.82917L11.8958 12.025C11.85 12.675 11.7917 13.4792 10.3375 13.4792Z" fill="#FF6F6F"/>
<path d="M9.69167 11.1875H8.30417C8.13334 11.1875 7.99167 11.0458 7.99167 10.875C7.99167 10.7042 8.13334 10.5625 8.30417 10.5625H9.69167C9.8625 10.5625 10.0042 10.7042 10.0042 10.875C10.0042 11.0458 9.8625 11.1875 9.69167 11.1875Z" fill="#FF6F6F"/>
<path d="M10.0417 9.52083H7.95834C7.7875 9.52083 7.64584 9.37917 7.64584 9.20833C7.64584 9.0375 7.7875 8.89583 7.95834 8.89583H10.0417C10.2125 8.89583 10.3542 9.0375 10.3542 9.20833C10.3542 9.37917 10.2125 9.52083 10.0417 9.52083Z" fill="#FF6F6F"/>
</svg>
