<svg width="18" height="26" viewBox="0 0 18 26" fill="none" xmlns="http://www.w3.org/2000/svg">
<path d="M5 5.57143H3.85714C3.23999 5.57143 2.73968 4.85196 2.73968 4.22078V2.14286C2.73968 1.51167 3.23999 1 3.85714 1H14.1683C14.7854 1 15.2857 1.51167 15.2857 2.14286V4.22078C15.2857 4.85196 14.7854 5.57143 14.1683 5.57143H13M5 5.57143V6.71429L2.26707 8.69778C1.46655 9.3482 1 10.3367 1 11.3823V22.7143C1 23.9767 2.00061 25 3.23492 25H14.7651C15.9994 25 17 23.9767 17 22.7143V11.3823C17 10.3367 16.5335 9.3482 15.7329 8.69778L13 6.71429V5.57143M5 5.57143H13" stroke="#C4C4C4" stroke-linejoin="round"/>
<path d="M5.57141 15.8571H12.4286" stroke="#C4C4C4" stroke-linecap="round"/>
<path d="M9 12.4286L9 19.2857" stroke="#C4C4C4" stroke-linecap="round"/>
</svg>
