<svg width="30" height="30" viewBox="0 0 30 30" fill="none" xmlns="http://www.w3.org/2000/svg">
<path d="M10.3625 7.8625C9.8375 7.8625 9.425 7.4375 9.425 6.925V3.4375C9.425 2.925 9.8375 2.5 10.3625 2.5C10.8875 2.5 11.3 2.925 11.3 3.4375V6.9125C11.3 7.4375 10.8875 7.8625 10.3625 7.8625Z" fill="#C4C4C4"/>
<path d="M19.6375 7.8625C19.1125 7.8625 18.7 7.4375 18.7 6.925V3.4375C18.7 2.9125 19.125 2.5 19.6375 2.5C20.1625 2.5 20.575 2.925 20.575 3.4375V6.9125C20.575 7.4375 20.1625 7.8625 19.6375 7.8625Z" fill="#C4C4C4"/>
<path d="M24.4625 5.625C23.6375 5.0125 22.45 5.6 22.45 6.6375V6.7625C22.45 8.225 21.4 9.575 19.9375 9.725C18.25 9.9 16.825 8.575 16.825 6.925V5.625C16.825 4.9375 16.2625 4.375 15.575 4.375H14.425C13.7375 4.375 13.175 4.9375 13.175 5.625V6.925C13.175 7.9125 12.6625 8.7875 11.8875 9.275C11.775 9.35 11.65 9.4125 11.525 9.475C11.4125 9.5375 11.2875 9.5875 11.15 9.625C11 9.675 10.8375 9.7125 10.6625 9.725C10.4625 9.75 10.2625 9.75 10.0625 9.725C9.8875 9.7125 9.725 9.675 9.575 9.625C9.45 9.5875 9.325 9.5375 9.2 9.475C9.075 9.4125 8.95 9.35 8.8375 9.275C8.05 8.725 7.55 7.775 7.55 6.7625V6.6375C7.55 5.675 6.525 5.1 5.7125 5.5125C5.7 5.525 5.6875 5.525 5.675 5.5375C5.625 5.5625 5.5875 5.5875 5.5375 5.625C5.5 5.6625 5.45 5.6875 5.4125 5.725C5.0625 6 4.75 6.3125 4.4875 6.65C4.35 6.8 4.2375 6.9625 4.1375 7.125C4.125 7.1375 4.1125 7.15 4.1 7.175C3.9875 7.3375 3.8875 7.525 3.8 7.7C3.775 7.725 3.7625 7.7375 3.7625 7.7625C3.6875 7.9125 3.6125 8.0625 3.5625 8.225C3.525 8.2875 3.5125 8.3375 3.4875 8.4C3.4125 8.5875 3.3625 8.775 3.3125 8.9625C3.2625 9.1375 3.225 9.325 3.2 9.5125C3.175 9.65 3.1625 9.7875 3.15 9.9375C3.1375 10.1125 3.125 10.2875 3.125 10.4625V21.4125C3.125 24.775 5.85 27.5 9.2125 27.5H20.7875C24.15 27.5 26.875 24.775 26.875 21.4125V10.4625C26.875 8.475 25.925 6.7375 24.4625 5.625ZM15 21.775H9.2C8.6875 21.775 8.2625 21.35 8.2625 20.8375C8.2625 20.3125 8.6875 19.8875 9.2 19.8875H15C15.525 19.8875 15.9375 20.3125 15.9375 20.8375C15.9375 21.35 15.525 21.775 15 21.775ZM18.475 17.1375H9.2C8.6875 17.1375 8.2625 16.7125 8.2625 16.2C8.2625 15.675 8.6875 15.25 9.2 15.25H18.475C19 15.25 19.425 15.675 19.425 16.2C19.425 16.7125 19 17.1375 18.475 17.1375Z" fill="#C4C4C4"/>
</svg>
