<svg width="24" height="24" viewBox="0 0 24 24" fill="none" xmlns="http://www.w3.org/2000/svg">
<path d="M15.4406 5.2028L17.7902 2.85315L20.8112 5.87413L18.4616 8.22378" stroke="#C4C4C4" stroke-linejoin="round"/>
<path d="M22.5074 1.86404C22.7027 1.66878 22.7027 1.3522 22.5074 1.15694C22.3121 0.961675 21.9955 0.961675 21.8003 1.15694L22.5074 1.86404ZM19.6542 4.71719L22.5074 1.86404L21.8003 1.15694L18.9471 4.01008L19.6542 4.71719Z" fill="#C4C4C4"/>
<path d="M3.35666 11.2448L12.7553 20.6434" stroke="#C4C4C4" stroke-linecap="round"/>
<path d="M20.1399 9.9021L20.4934 10.2556C20.5872 10.1619 20.6399 10.0347 20.6399 9.9021C20.6399 9.76949 20.5872 9.64231 20.4934 9.54854L20.1399 9.9021ZM14.0979 3.86014L14.4515 3.50658C14.2562 3.31132 13.9396 3.31132 13.7443 3.50658L14.0979 3.86014ZM11.4305 19.3186L20.4934 10.2556L19.7863 9.54854L10.7234 18.6115L11.4305 19.3186ZM20.4934 9.54854L14.4515 3.50658L13.7443 4.21369L19.7863 10.2556L20.4934 9.54854ZM13.7443 3.50658L4.68141 12.5695L5.38852 13.2766L14.4515 4.21369L13.7443 3.50658Z" fill="#C4C4C4"/>
<path d="M10.4056 13.5944L13.4266 16.6154" stroke="#C4C4C4" stroke-linecap="round"/>
<path d="M13.529 12.4068L15.6334 14.4086" stroke="#C4C4C4" stroke-linecap="round"/>
<path d="M5.85625 21.1647C6.05151 21.36 6.3681 21.36 6.56336 21.1647C6.75862 20.9695 6.75862 20.6529 6.56336 20.4576L5.85625 21.1647ZM3.54238 17.4367C3.34712 17.2414 3.03053 17.2414 2.83527 17.4367C2.64001 17.6319 2.64001 17.9485 2.83527 18.1438L3.54238 17.4367ZM8.03807 15.2548L4.34576 18.9471L5.05287 19.6543L8.74518 15.9619L8.03807 15.2548ZM4.34576 19.6543L5.85625 21.1647L6.56336 20.4576L5.05287 18.9471L4.34576 19.6543ZM5.05287 18.9471L3.54238 17.4367L2.83527 18.1438L4.34576 19.6543L5.05287 18.9471Z" fill="#C4C4C4"/>
</svg>
