<svg width="18" height="18" viewBox="0 0 18 18" fill="none" xmlns="http://www.w3.org/2000/svg">
<path d="M11.25 17.0625H6.75C2.6775 17.0625 0.9375 15.3225 0.9375 11.25V6.75C0.9375 2.6775 2.6775 0.9375 6.75 0.9375H11.25C15.3225 0.9375 17.0625 2.6775 17.0625 6.75V11.25C17.0625 15.3225 15.3225 17.0625 11.25 17.0625Z" fill="#ECFAEE"/>
<path d="M7.935 11.685C7.785 11.685 7.6425 11.625 7.5375 11.52L5.415 9.3975C5.1975 9.18 5.1975 8.82 5.415 8.6025C5.6325 8.385 5.9925 8.385 6.21 8.6025L7.935 10.3275L11.79 6.4725C12.0075 6.255 12.3675 6.255 12.585 6.4725C12.8025 6.69 12.8025 7.05 12.585 7.2675L8.3325 11.52C8.2275 11.625 8.085 11.685 7.935 11.685Z" fill="#01B414"/>
</svg>
